<svg width="2500" height="1800" viewBox="0 0 2500 1800" fill="none" xmlns="http://www.w3.org/2000/svg">
<g clip-path="url(#clip0_1_2)">
<rect width="2500" height="1800" fill="black"/>
<path d="M-86.7994 -1779.21C98.0638 -1743.89 242.185 -1647.59 345.565 -1490.32C448.944 -1333.05 593.066 -1236.75 777.929 -1201.42C962.792 -1166.1 1106.91 -1069.8 1210.29 -912.525C1313.67 -755.252 1457.79 -658.953 1642.66 -623.629C1827.52 -588.304 1971.64 -492.006 2075.02 -334.732C2178.4 -177.459 2322.52 -81.1602 2507.39 -45.8358C2692.25 -10.5114 2836.37 85.7874 2939.75 243.061C3043.13 400.334 3187.25 496.633 3372.11 531.957C3556.98 567.282 3701.1 663.58 3804.48 820.854C3907.86 978.127 4051.98 1074.43 4236.84 1109.75" stroke="#012A51" stroke-width="110"/>
<path d="M-147.912 -1687.75C36.9511 -1652.43 181.073 -1556.13 284.452 -1398.86C387.832 -1241.58 531.953 -1145.28 716.816 -1109.96C901.68 -1074.64 1045.8 -978.337 1149.18 -821.064C1252.56 -663.79 1396.68 -567.492 1581.54 -532.167C1766.41 -496.843 1910.53 -400.544 2013.91 -243.271C2117.29 -85.9974 2261.41 10.3015 2446.27 45.6259C2631.14 80.9503 2775.26 177.249 2878.64 334.522C2982.02 491.796 3126.14 588.095 3311 623.419C3495.86 658.743 3639.99 755.042 3743.37 912.315C3846.75 1069.59 3990.87 1165.89 4175.73 1201.21" stroke="#012A51" stroke-width="110"/>
<path d="M-209.025 -1596.29C-24.1616 -1560.97 119.96 -1464.67 223.339 -1307.4C326.719 -1150.12 470.84 -1053.82 655.704 -1018.5C840.567 -983.174 984.688 -886.875 1088.07 -729.602C1191.45 -572.329 1335.57 -476.03 1520.43 -440.706C1705.3 -405.381 1849.42 -309.082 1952.8 -151.809C2056.18 5.46428 2200.3 101.763 2385.16 137.088C2570.02 172.412 2714.15 268.711 2817.52 425.984C2920.9 583.257 3065.03 679.556 3249.89 714.881C3434.75 750.205 3578.87 846.504 3682.25 1003.78C3785.63 1161.05 3929.75 1257.35 4114.62 1292.67" stroke="#012A51" stroke-width="110"/>
<path d="M-270.138 -1504.83C-85.2743 -1469.51 58.8471 -1373.21 162.227 -1215.93C265.606 -1058.66 409.728 -962.361 594.591 -927.037C779.454 -891.713 923.576 -795.414 1026.96 -638.14C1130.33 -480.867 1274.46 -384.568 1459.32 -349.244C1644.18 -313.919 1788.3 -217.621 1891.68 -60.3473C1995.06 96.9259 2139.18 193.225 2324.05 228.549C2508.91 263.874 2653.03 360.172 2756.41 517.446C2859.79 674.719 3003.91 771.018 3188.78 806.342C3373.64 841.667 3517.76 937.966 3621.14 1095.24C3724.52 1252.51 3868.64 1348.81 4053.5 1384.14" stroke="#01386A" stroke-width="110"/>
<path d="M-331.25 -1413.37C-146.387 -1378.04 -2.2657 -1281.75 101.114 -1124.47C204.493 -967.198 348.615 -870.9 533.478 -835.575C718.341 -800.251 862.463 -703.952 965.842 -546.679C1069.22 -389.405 1213.34 -293.107 1398.21 -257.782C1583.07 -222.458 1727.19 -126.159 1830.57 31.1143C1933.95 188.388 2078.07 284.686 2262.93 320.011C2447.8 355.335 2591.92 451.634 2695.3 608.907C2798.68 766.181 2942.8 862.48 3127.66 897.804C3312.53 933.128 3456.65 1029.43 3560.03 1186.7C3663.41 1343.97 3807.53 1440.27 3992.39 1475.6" stroke="#01386A" stroke-width="110"/>
<path d="M-392.363 -1321.91C-207.5 -1286.58 -63.3784 -1190.28 40.0012 -1033.01C143.381 -875.737 287.502 -779.438 472.365 -744.114C657.229 -708.789 801.35 -612.49 904.73 -455.217C1008.11 -297.944 1152.23 -201.645 1337.09 -166.321C1521.96 -130.996 1666.08 -34.6973 1769.46 122.576C1872.84 279.849 2016.96 376.148 2201.82 411.473C2386.69 446.797 2530.81 543.096 2634.19 700.369C2737.57 857.642 2881.69 953.941 3066.55 989.266C3251.41 1024.59 3395.54 1120.89 3498.91 1278.16C3602.29 1435.44 3746.42 1531.73 3931.28 1567.06" stroke="#01386A" stroke-width="110"/>
<path d="M-453.476 -1230.44C-268.612 -1195.12 -124.491 -1098.82 -21.1115 -941.548C82.2681 -784.275 226.39 -687.976 411.253 -652.652C596.116 -617.327 740.237 -521.029 843.617 -363.755C946.997 -206.482 1091.12 -110.183 1275.98 -74.8588C1460.84 -39.5344 1604.97 56.7644 1708.35 214.038C1811.73 371.311 1955.85 467.61 2140.71 502.934C2325.57 538.259 2469.69 634.557 2573.07 791.831C2676.45 949.104 2820.57 1045.4 3005.44 1080.73C3190.3 1116.05 3334.42 1212.35 3437.8 1369.62C3541.18 1526.9 3685.3 1623.2 3870.17 1658.52" stroke="#024583" stroke-width="110"/>
<path d="M-514.588 -1138.98C-329.725 -1103.66 -185.604 -1007.36 -82.2242 -850.087C21.1553 -692.813 165.277 -596.515 350.14 -561.19C535.003 -525.866 679.125 -429.567 782.504 -272.294C885.884 -115.02 1030.01 -18.7216 1214.87 16.6028C1399.73 51.9272 1543.85 148.226 1647.23 305.499C1750.61 462.773 1894.73 559.071 2079.6 594.396C2264.46 629.72 2408.58 726.019 2511.96 883.292C2615.34 1040.57 2759.46 1136.86 2944.33 1172.19C3129.19 1207.51 3273.31 1303.81 3376.69 1461.09C3480.07 1618.36 3624.19 1714.66 3809.05 1749.98" stroke="#024583" stroke-width="110"/>
<path d="M-575.701 -1047.52C-390.838 -1012.2 -246.717 -915.898 -143.337 -758.625C-39.9573 -601.352 104.164 -505.053 289.027 -469.729C473.891 -434.404 618.012 -338.105 721.392 -180.832C824.771 -23.5589 968.893 72.74 1153.76 108.064C1338.62 143.389 1482.74 239.688 1586.12 396.961C1689.5 554.234 1833.62 650.533 2018.48 685.857C2203.35 721.182 2347.47 817.481 2450.85 974.754C2554.23 1132.03 2698.35 1228.33 2883.21 1263.65C3068.08 1298.97 3212.2 1395.27 3315.58 1552.55C3418.96 1709.82 3563.08 1806.12 3747.94 1841.44" stroke="#024583" stroke-width="110"/>
<path d="M-636.814 -956.06C-451.951 -920.736 -307.829 -824.437 -204.45 -667.164C-101.07 -509.89 43.0513 -413.591 227.915 -378.267C412.778 -342.943 556.899 -246.644 660.279 -89.3705C763.658 67.9028 907.78 164.202 1092.64 199.526C1277.51 234.85 1421.63 331.149 1525.01 488.423C1628.39 645.696 1772.51 741.995 1957.37 777.319C2142.23 812.644 2286.36 908.942 2389.74 1066.22C2493.12 1223.49 2637.24 1319.79 2822.1 1355.11C3006.96 1390.44 3151.08 1486.74 3254.46 1644.01C3357.84 1801.28 3501.97 1897.58 3686.83 1932.91" stroke="#02529C" stroke-width="110"/>
<path d="M-697.927 -864.598C-513.063 -829.274 -368.942 -732.975 -265.562 -575.702C-162.183 -418.429 -18.0614 -322.13 166.802 -286.805C351.665 -251.481 495.786 -155.182 599.166 2.09119C702.546 159.364 846.667 255.663 1031.53 290.988C1216.39 326.312 1360.51 422.611 1463.89 579.884C1567.27 737.158 1711.4 833.456 1896.26 868.781C2081.12 904.105 2225.24 1000.4 2328.62 1157.68C2432 1314.95 2576.12 1411.25 2760.99 1446.57C2945.85 1481.9 3089.97 1578.2 3193.35 1735.47C3296.73 1892.74 3440.85 1989.04 3625.72 2024.37" stroke="#02529C" stroke-width="110"/>
<path d="M-759.039 -773.137C-574.176 -737.812 -430.055 -641.514 -326.675 -484.24C-223.295 -326.967 -79.174 -230.668 105.689 -195.344C290.552 -160.019 434.674 -63.7205 538.053 93.5527C641.433 250.826 785.554 347.125 970.418 382.449C1155.28 417.774 1299.4 514.073 1402.78 671.346C1506.16 828.619 1650.28 924.918 1835.15 960.242C2020.01 995.567 2164.13 1091.87 2267.51 1249.14C2370.89 1406.41 2515.01 1502.71 2699.87 1538.04C2884.74 1573.36 3028.86 1669.66 3132.24 1826.93C3235.62 1984.21 3379.74 2080.5 3564.6 2115.83" stroke="#02529C" stroke-width="110"/>
<path d="M-820.152 -681.675C-635.289 -646.351 -491.167 -550.052 -387.788 -392.779C-284.408 -235.505 -140.287 -139.207 44.5764 -103.882C229.44 -68.5577 373.561 27.7411 476.941 185.014C580.32 342.288 724.442 438.587 909.305 473.911C1094.17 509.235 1238.29 605.534 1341.67 762.807C1445.05 920.081 1589.17 1016.38 1774.03 1051.7C1958.9 1087.03 2103.02 1183.33 2206.4 1340.6C2309.78 1497.87 2453.9 1594.17 2638.76 1629.5C2823.62 1664.82 2967.75 1761.12 3071.13 1918.39C3174.51 2075.67 3318.63 2171.97 3503.49 2207.29" stroke="white" stroke-width="110"/>
<path d="M-881.265 -590.214C-696.402 -554.889 -552.28 -458.59 -448.901 -301.317C-345.521 -144.044 -201.4 -47.7449 -16.5364 -12.4205C168.327 22.904 312.448 119.203 415.828 276.476C519.207 433.749 663.329 530.048 848.192 565.373C1033.06 600.697 1177.18 696.996 1280.56 854.269C1383.94 1011.54 1528.06 1107.84 1712.92 1143.17C1897.78 1178.49 2041.91 1274.79 2145.28 1432.06C2248.66 1589.34 2392.79 1685.63 2577.65 1720.96C2762.51 1756.28 2906.63 1852.58 3010.01 2009.86C3113.39 2167.13 3257.51 2263.43 3442.38 2298.75" stroke="#DC1E35" stroke-width="110"/>
<path d="M-942.377 -498.752C-757.514 -463.427 -613.393 -367.129 -510.013 -209.855C-406.634 -52.582 -262.512 43.7168 -77.649 79.0412C107.214 114.366 251.336 210.664 354.715 367.938C458.095 525.211 602.216 621.51 787.079 656.834C971.943 692.159 1116.06 788.458 1219.44 945.731C1322.82 1103 1466.94 1199.3 1651.81 1234.63C1836.67 1269.95 1980.79 1366.25 2084.17 1523.52C2187.55 1680.8 2331.67 1777.1 2516.54 1812.42C2701.4 1847.74 2845.52 1944.04 2948.9 2101.32C3052.28 2258.59 3196.4 2354.89 3381.26 2390.21" stroke="#DC1E35" stroke-width="110"/>
<path d="M-1003.49 -407.29C-818.627 -371.966 -674.506 -275.667 -571.126 -118.394C-467.746 38.8796 -323.625 135.178 -138.762 170.503C46.1015 205.827 190.223 302.126 293.602 459.399C396.982 616.673 541.103 712.972 725.967 748.296C910.83 783.62 1054.95 879.919 1158.33 1037.19C1261.71 1194.47 1405.83 1290.76 1590.7 1326.09C1775.56 1361.41 1919.68 1457.71 2023.06 1614.99C2126.44 1772.26 2270.56 1868.56 2455.42 1903.88C2640.29 1939.21 2784.41 2035.51 2887.79 2192.78C2991.17 2350.05 3135.29 2446.35 3320.15 2481.68" stroke="white" stroke-width="110"/>
<path d="M-1064.6 -315.828C-879.74 -280.504 -735.618 -184.205 -632.239 -26.932C-528.859 130.341 -384.738 226.64 -199.875 261.965C-15.0113 297.289 129.11 393.588 232.49 550.861C335.869 708.134 479.991 804.433 664.854 839.758C849.717 875.082 993.839 971.381 1097.22 1128.65C1200.6 1285.93 1344.72 1382.23 1529.58 1417.55C1714.45 1452.88 1858.57 1549.17 1961.95 1706.45C2065.33 1863.72 2209.45 1960.02 2394.31 1995.34C2579.17 2030.67 2723.3 2126.97 2826.67 2284.24C2930.05 2441.51 3074.18 2537.81 3259.04 2573.14" stroke="#02529C" stroke-width="110"/>
<path d="M-1125.72 -224.367C-940.853 -189.042 -796.731 -92.7436 -693.352 64.5297C-589.972 221.803 -445.851 318.102 -260.987 353.426C-76.1241 388.751 67.9973 485.049 171.377 642.323C274.756 799.596 418.878 895.895 603.741 931.219C788.604 966.544 932.726 1062.84 1036.11 1220.12C1139.48 1377.39 1283.61 1473.69 1468.47 1509.01C1653.33 1544.34 1797.45 1640.64 1900.83 1797.91C2004.21 1955.18 2148.33 2051.48 2333.2 2086.81C2518.06 2122.13 2662.18 2218.43 2765.56 2375.7C2868.94 2532.98 3013.06 2629.27 3197.93 2664.6" stroke="#02529C" stroke-width="110"/>
<path d="M-1186.83 -132.905C-1001.97 -97.5808 -857.844 -1.28191 -754.464 155.991C-651.085 313.265 -506.963 409.563 -322.1 444.888C-137.237 480.212 6.88474 576.511 110.264 733.784C213.644 891.058 357.765 987.357 542.629 1022.68C727.492 1058.01 871.613 1154.3 974.993 1311.58C1078.37 1468.85 1222.49 1565.15 1407.36 1600.47C1592.22 1635.8 1736.34 1732.1 1839.72 1889.37C1943.1 2046.64 2087.22 2142.94 2272.09 2178.27C2456.95 2213.59 2601.07 2309.89 2704.45 2467.16C2807.83 2624.44 2951.95 2720.74 3136.81 2756.06" stroke="#02529C" stroke-width="110"/>
<path d="M-1247.94 -41.4436C-1063.08 -6.11921 -918.956 90.1796 -815.577 247.453C-712.197 404.726 -568.076 501.025 -383.213 536.349C-198.349 571.674 -54.2281 667.973 49.1515 825.246C152.531 982.519 296.653 1078.82 481.516 1114.14C666.379 1149.47 810.5 1245.77 913.88 1403.04C1017.26 1560.31 1161.38 1656.61 1346.24 1691.94C1531.11 1727.26 1675.23 1823.56 1778.61 1980.83C1881.99 2138.11 2026.11 2234.4 2210.97 2269.73C2395.84 2305.05 2539.96 2401.35 2643.34 2558.63C2746.72 2715.9 2890.84 2812.2 3075.7 2847.52" stroke="#024583" stroke-width="110"/>
<path d="M-1309.05 50.0181C-1124.19 85.3425 -980.069 181.641 -876.69 338.915C-773.31 496.188 -629.189 592.487 -444.325 627.811C-259.462 663.136 -115.341 759.434 -11.9613 916.708C91.4183 1073.98 235.54 1170.28 420.403 1205.6C605.266 1240.93 749.388 1337.23 852.767 1494.5C956.147 1651.77 1100.27 1748.07 1285.13 1783.4C1469.99 1818.72 1614.12 1915.02 1717.5 2072.29C1820.88 2229.57 1965 2325.87 2149.86 2361.19C2334.72 2396.51 2478.84 2492.81 2582.22 2650.09C2685.6 2807.36 2829.73 2903.66 3014.59 2938.98" stroke="#024583" stroke-width="110"/>
<path d="M-1370.17 141.48C-1185.3 176.804 -1041.18 273.103 -937.802 430.376C-834.423 587.65 -690.301 683.948 -505.438 719.273C-320.575 754.597 -176.453 850.896 -73.0738 1008.17C30.3058 1165.44 174.427 1261.74 359.29 1297.07C544.154 1332.39 688.275 1428.69 791.655 1585.96C895.034 1743.24 1039.16 1839.53 1224.02 1874.86C1408.88 1910.18 1553 2006.48 1656.38 2163.76C1759.76 2321.03 1903.88 2417.33 2088.75 2452.65C2273.61 2487.98 2417.73 2584.28 2521.11 2741.55C2624.49 2898.82 2768.61 2995.12 2953.48 3030.45" stroke="#024583" stroke-width="110"/>
<path d="M-1431.28 232.941C-1246.42 268.266 -1102.29 364.565 -998.915 521.838C-895.535 679.111 -751.414 775.41 -566.551 810.734C-381.688 846.059 -237.566 942.358 -134.187 1099.63C-30.807 1256.9 113.314 1353.2 298.178 1388.53C483.041 1423.85 627.162 1520.15 730.542 1677.42C833.921 1834.7 978.043 1931 1162.91 1966.32C1347.77 2001.64 1491.89 2097.94 1595.27 2255.22C1698.65 2412.49 1842.77 2508.79 2027.63 2544.11C2212.5 2579.44 2356.62 2675.74 2460 2833.01C2563.38 2990.28 2707.5 3086.58 2892.36 3121.91" stroke="#01386A" stroke-width="110"/>
<path d="M-1492.39 324.403C-1307.53 359.727 -1163.41 456.026 -1060.03 613.3C-956.648 770.573 -812.527 866.872 -627.664 902.196C-442.8 937.521 -298.679 1033.82 -195.299 1191.09C-91.9198 1348.37 52.2016 1444.66 237.065 1479.99C421.928 1515.31 566.049 1611.61 669.429 1768.89C772.809 1926.16 916.93 2022.46 1101.79 2057.78C1286.66 2093.11 1430.78 2189.41 1534.16 2346.68C1637.54 2503.95 1781.66 2600.25 1966.52 2635.58C2151.38 2670.9 2295.51 2767.2 2398.89 2924.47C2502.27 3081.75 2646.39 3178.04 2831.25 3213.37" stroke="#01386A" stroke-width="110"/>
<path d="M-1553.5 415.865C-1368.64 451.189 -1224.52 547.488 -1121.14 704.761C-1017.76 862.035 -873.639 958.333 -688.776 993.658C-503.913 1028.98 -359.792 1125.28 -256.412 1282.55C-153.032 1439.83 -8.91094 1536.13 175.952 1571.45C360.815 1606.78 504.937 1703.07 608.317 1860.35C711.696 2017.62 855.818 2113.92 1040.68 2149.24C1225.54 2184.57 1369.67 2280.87 1473.04 2438.14C1576.42 2595.41 1720.55 2691.71 1905.41 2727.04C2090.27 2762.36 2234.39 2858.66 2337.77 3015.93C2441.15 3173.21 2585.27 3269.51 2770.14 3304.83" stroke="#01386A" stroke-width="110"/>
<path d="M-1614.62 507.326C-1429.75 542.651 -1285.63 638.95 -1182.25 796.223C-1078.87 953.496 -934.752 1049.8 -749.889 1085.12C-565.026 1120.44 -420.904 1216.74 -317.525 1374.02C-214.145 1531.29 -70.0237 1627.59 114.839 1662.91C299.703 1698.24 443.824 1794.54 547.204 1951.81C650.583 2109.08 794.705 2205.38 979.568 2240.71C1164.43 2276.03 1308.55 2372.33 1411.93 2529.6C1515.31 2686.88 1659.43 2783.17 1844.3 2818.5C2029.16 2853.82 2173.28 2950.12 2276.66 3107.4C2380.04 3264.67 2524.16 3360.97 2709.02 3396.29" stroke="#012A51" stroke-width="110"/>
<path d="M-1675.73 598.788C-1490.87 634.112 -1346.75 730.411 -1243.37 887.685C-1139.99 1044.96 -995.865 1141.26 -811.002 1176.58C-626.139 1211.91 -482.017 1308.2 -378.638 1465.48C-275.258 1622.75 -131.137 1719.05 53.7267 1754.37C238.59 1789.7 382.711 1886 486.091 2043.27C589.471 2200.54 733.592 2296.84 918.455 2332.17C1103.32 2367.49 1247.44 2463.79 1350.82 2621.06C1454.2 2778.34 1598.32 2874.64 1783.18 2909.96C1968.05 2945.28 2112.17 3041.58 2215.55 3198.86C2318.93 3356.13 2463.05 3452.43 2647.91 3487.75" stroke="#012A51" stroke-width="110"/>
<path d="M-1736.84 690.25C-1551.98 725.574 -1407.86 821.873 -1304.48 979.146C-1201.1 1136.42 -1056.98 1232.72 -872.115 1268.04C-687.251 1303.37 -543.13 1399.67 -439.75 1556.94C-336.371 1714.21 -192.249 1810.51 -7.3861 1845.84C177.477 1881.16 321.599 1977.46 424.978 2134.73C528.358 2292.01 672.479 2388.3 857.342 2423.63C1042.21 2458.95 1186.33 2555.25 1289.71 2712.53C1393.09 2869.8 1537.21 2966.1 1722.07 3001.42C1906.93 3036.75 2051.06 3133.05 2154.44 3290.32C2257.81 3447.59 2401.94 3543.89 2586.8 3579.21" stroke="#012A51" stroke-width="110"/>
</g>
<defs>
<clipPath id="clip0_1_2">
<rect width="2500" height="1800" fill="white"/>
</clipPath>
</defs>
</svg>
